<svg width="512" height="512" viewBox="0 0 512 512" fill="none" xmlns="http://www.w3.org/2000/svg">
<rect width="512" height="512" fill="#000000"/>
<g transform="translate(50, 160)">
  <!-- Red C shape -->
  <path d="M0 80C0 35.8172 35.8172 0 80 0C124.183 0 160 35.8172 160 80C160 124.183 124.183 160 80 160C35.8172 160 0 124.183 0 80ZM40 80C40 102.091 57.9086 120 80 120V40C57.9086 40 40 57.9086 40 80Z" fill="#FF4444"/>
  
  <!-- Gray quarter circle -->
  <path d="M80 0C124.183 0 160 35.8172 160 80H120C120 57.9086 102.091 40 80 40V0Z" fill="#888888"/>
  
  <!-- Text "anoma" -->
  <text x="180" y="100" font-family="Arial, sans-serif" font-size="60" font-weight="normal" fill="white">anoma</text>
</g>
</svg>